<?xml version="1.0" encoding="utf-8"?>
<!-- Generator: Adobe Illustrator 16.0.0, SVG Export Plug-In . SVG Version: 6.00 Build 0)  -->
<!DOCTYPE svg PUBLIC "-//W3C//DTD SVG 1.1//EN" "http://www.w3.org/Graphics/SVG/1.1/DTD/svg11.dtd" [
	<!ENTITY ns_flows "http://ns.adobe.com/Flows/1.0/">
	<!ENTITY ns_extend "http://ns.adobe.com/Extensibility/1.0/">
	<!ENTITY ns_ai "http://ns.adobe.com/AdobeIllustrator/10.0/">
	<!ENTITY ns_graphs "http://ns.adobe.com/Graphs/1.0/">
]>
<svg version="1.1" xmlns:x="&ns_extend;" xmlns:i="&ns_ai;" xmlns:graph="&ns_graphs;"
	 xmlns="http://www.w3.org/2000/svg" xmlns:xlink="http://www.w3.org/1999/xlink" xmlns:a="http://ns.adobe.com/AdobeSVGViewerExtensions/3.0/"
	 x="0px" y="0px" width="695.358px" height="262.486px" viewBox="0 0 695.358 262.486" enable-background="new 0 0 695.358 262.486"
	 xml:space="preserve">
<g id="Layer_1">
	<g>
		<defs>
			<rect id="SVGID_1_" x="56.899" y="-151.674" width="640.48" height="494.908"/>
		</defs>
		<clipPath id="SVGID_2_">
			<use xlink:href="#SVGID_1_"  overflow="visible"/>
		</clipPath>
		<path clip-path="url(#SVGID_2_)" fill="#FFFFFF" d="M366.114,130.084l3.826-0.396l0.264,7.777
			c-10.025,1.404-18.602,2.11-25.721,2.11c-9.491,0-16.213-2.747-20.167-8.241c-3.955-5.489-5.932-14.034-5.932-25.633
			c0-23.11,9.182-34.667,27.549-34.667c8.879,0,15.52,2.483,19.919,7.447c4.395,4.965,6.592,12.766,6.592,23.397l-0.527,7.513
			h-43.514c0,7.295,1.318,12.7,3.953,16.211c2.637,3.515,7.228,5.271,13.775,5.271C352.679,130.875,359.342,130.61,366.114,130.084
			 M362.553,101.484c0-8.084-1.299-13.795-3.894-17.136c-2.594-3.338-6.815-5.01-12.661-5.01s-10.238,1.76-13.18,5.273
			c-2.945,3.516-4.462,9.14-4.548,16.873H362.553z"/>
		<rect x="386.229" y="51.997" clip-path="url(#SVGID_2_)" fill="#FFFFFF" width="9.887" height="87.486"/>
		<path clip-path="url(#SVGID_2_)" fill="#FFFFFF" d="M458.372,92.257v33.245c0,3.292,8.205,3.162,8.205,3.162l-0.506,8.733
			c-6.943,0-12.689,0.576-16.146-2.765c-7.908,3.517-15.808,4.943-23.715,4.943c-6.063,0-10.677-1.715-13.841-5.144
			c-3.163-3.426-4.746-8.344-4.746-14.758c0-6.414,1.626-11.139,4.878-14.17c3.25-3.032,8.348-4.897,15.29-5.601l20.694-1.978
			v-5.667c0-4.481-0.969-7.689-2.899-9.622c-1.934-1.932-4.57-2.9-7.909-2.9l-25.974,0.021v-8.722h25.313
			c7.47,0,12.896,1.714,16.28,5.14C456.681,79.604,458.372,84.964,458.372,92.257 M417.774,119.147
			c0,8.084,3.338,12.123,10.018,12.123c5.975,0,11.863-1.009,17.663-3.03l3.031-1.055v-21.747l-19.508,1.845
			c-3.954,0.353-6.811,1.495-8.569,3.427C418.651,112.644,417.774,115.456,417.774,119.147"/>
		<path clip-path="url(#SVGID_2_)" fill="#FFFFFF" d="M496.957,79.867c-9.579,0-14.367,3.34-14.367,10.018
			c0,3.077,1.096,5.251,3.295,6.524c2.195,1.275,7.204,2.593,15.026,3.955c7.822,1.363,13.356,3.275,16.607,5.733
			c3.25,2.461,4.878,7.075,4.878,13.841c0,6.766-2.173,11.727-6.526,14.89c-4.349,3.165-10.697,4.748-19.045,4.748
			c-5.45,0-23.632-2.02-23.632-2.02l0.526-8.566c10.452,1.007,18.008,1.752,23.105,1.752c5.095,0,8.983-0.812,11.665-2.438
			c2.68-1.625,4.021-4.347,4.021-8.169c0-3.823-1.143-6.414-3.426-7.777c-2.288-1.362-7.296-2.658-15.028-3.889
			c-7.733-1.23-13.226-3.032-16.477-5.406c-3.251-2.372-4.877-6.765-4.877-13.18c0-6.414,2.262-11.16,6.788-14.235
			c4.525-3.076,10.171-4.614,16.938-4.614c5.359,0,23.959,1.363,23.959,1.363v8.619C510.604,80.571,502.58,79.867,496.957,79.867"/>
		<path clip-path="url(#SVGID_2_)" fill="#FFFFFF" d="M570.077,80.921h-20.958v31.503c0,7.559,0.548,12.521,1.647,14.893
			c1.097,2.372,3.711,3.557,7.842,3.557l11.732-0.79l0.659,8.172c-5.89,0.968-10.371,1.451-13.445,1.451
			c-6.854,0-11.599-1.669-14.236-5.012c-2.636-3.338-3.954-9.706-3.954-19.108V80.921h-9.358v-8.569h9.358V52.186h9.755v20.167
			h20.958V80.921z"/>
		<path clip-path="url(#SVGID_2_)" fill="#FFFFFF" d="M583.821,52.072h9.885V63.54h-9.885V52.072z M583.821,72.769h9.885v66.714
			h-9.885V72.769z"/>
		<path clip-path="url(#SVGID_2_)" fill="#FFFFFF" d="M636.526,71.035c2.9,0,7.821,0.527,14.764,1.582l3.163,0.396l-0.395,8.041
			c-7.032-0.791-12.216-1.187-15.555-1.187c-7.47,0-12.545,1.779-15.224,5.338c-2.681,3.56-4.021,10.149-4.021,19.772
			c0,9.622,1.253,16.324,3.757,20.1c2.505,3.777,7.711,5.665,15.619,5.665l15.555-1.186l0.396,8.171
			c-8.172,1.231-14.282,1.848-18.322,1.848c-10.282,0-17.378-2.638-21.287-7.912c-3.912-5.27-5.866-14.166-5.866-26.687
			c0-12.523,2.108-21.309,6.326-26.363C619.655,73.562,626.685,71.035,636.526,71.035"/>
	</g>
	<g>
		<path fill="#FFFFFF" d="M349.043,163.448c0-1.134,0.256-1.93,0.77-2.389c0.513-0.459,1.363-0.688,2.552-0.688
			c1.079,0,1.876,0.229,2.39,0.688c0.513,0.459,0.77,1.255,0.77,2.389v12.069h22.68c1.62,0,2.942,0.081,3.969,0.243
			c1.025,0.162,1.823,0.5,2.39,1.013c0.567,0.514,0.958,1.27,1.175,2.268c0.215,1,0.324,2.309,0.324,3.929v25.596
			c0,1.458-0.096,2.66-0.284,3.604c-0.189,0.945-0.566,1.701-1.134,2.269c-0.566,0.566-1.364,0.959-2.39,1.174
			c-1.026,0.217-2.349,0.324-3.969,0.324h-22.761v19.197c0,0.918-0.23,1.633-0.688,2.146c-0.46,0.513-1.311,0.77-2.552,0.77
			c-1.405,0-2.296-0.23-2.673-0.688c-0.379-0.46-0.567-1.229-0.567-2.309v-19.116h-22.275c-1.62,0-2.944-0.107-3.969-0.324
			c-1.026-0.215-1.81-0.607-2.349-1.174c-0.541-0.567-0.905-1.323-1.093-2.269c-0.19-0.944-0.284-2.146-0.284-3.604v-25.677
			c0-1.511,0.094-2.754,0.284-3.726c0.188-0.973,0.567-1.714,1.134-2.228c0.567-0.513,1.349-0.877,2.349-1.094
			c0.999-0.215,2.309-0.324,3.928-0.324h22.275V163.448z M326.768,181.755c-0.433,0-0.77,0.121-1.012,0.364
			c-0.243,0.243-0.365,0.526-0.365,0.851v25.353c0,0.379,0.108,0.703,0.324,0.973c0.215,0.271,0.539,0.405,0.972,0.405h22.356
			v-27.945H326.768z M355.523,181.755V209.7h22.68c0.432,0,0.796-0.108,1.094-0.324c0.296-0.216,0.445-0.701,0.445-1.458V182.97
			c0-0.486-0.121-0.81-0.364-0.972s-0.607-0.243-1.094-0.243H355.523z"/>
		<path fill="#FFFFFF" d="M441.221,173.25c-0.81-1.35-1.634-2.552-2.471-3.604c-0.838-1.054-1.769-2.119-2.794-3.2
			c-1.891-1.835-2.08-3.563-0.567-5.184c0.648-0.594,1.337-0.851,2.065-0.77c0.729,0.081,1.714,0.662,2.957,1.741
			c2.321,2.053,4.293,4.429,5.913,7.128c0.647,1.081,0.984,1.973,1.012,2.674c0.027,0.702-0.257,1.431-0.851,2.187h29.565
			c1.08,0,1.822,0.283,2.228,0.851s0.607,1.337,0.607,2.309c0,0.919-0.202,1.66-0.607,2.228c-0.405,0.566-1.147,0.851-2.228,0.851
			h-11.097c-1.782,7.452-4.199,13.96-7.25,19.521c-3.051,5.562-6.845,10.666-11.38,15.31c4.319,3.511,8.99,6.574,14.013,9.193
			c5.021,2.618,10.557,4.872,16.604,6.764c1.188,0.432,2.012,0.972,2.471,1.62c0.458,0.647,0.499,1.565,0.122,2.754
			c-0.324,1.024-0.892,1.66-1.701,1.903c-0.811,0.243-1.918,0.175-3.321-0.203c-3.187-0.918-6.332-2.024-9.437-3.32
			c-3.105-1.296-6.075-2.714-8.91-4.253s-5.521-3.146-8.06-4.819s-4.807-3.374-6.804-5.103c-2.215,1.781-4.631,3.523-7.249,5.224
			c-2.62,1.701-5.347,3.321-8.182,4.86s-5.751,2.942-8.748,4.212c-2.997,1.269-5.953,2.361-8.869,3.28
			c-1.837,0.539-3.092,0.675-3.767,0.405c-0.676-0.271-1.175-0.919-1.498-1.944c-0.324-1.08-0.23-1.998,0.283-2.754
			c0.513-0.757,1.552-1.35,3.118-1.781c5.508-1.782,10.745-3.929,15.714-6.439c4.968-2.512,9.802-5.684,14.499-9.518
			c-2.43-2.483-4.617-5.022-6.561-7.614c-1.944-2.592-3.714-5.306-5.306-8.141c-1.594-2.835-2.997-5.832-4.212-8.991
			s-2.309-6.547-3.28-10.165h-10.449c-1.134,0-1.877-0.284-2.228-0.851c-0.352-0.567-0.526-1.309-0.526-2.228
			c0-0.972,0.175-1.741,0.526-2.309c0.351-0.567,1.094-0.851,2.228-0.851h35.154C441.679,174.007,441.436,173.683,441.221,173.25z
			 M423.644,180.459c1.835,6.589,4.158,12.325,6.966,17.212c2.808,4.888,6.426,9.384,10.854,13.487
			c8.262-7.938,13.959-18.171,17.091-30.699H423.644z"/>
		<path fill="#FFFFFF" d="M512.825,234.566c0,1.188-0.283,2.052-0.851,2.593c-0.566,0.539-1.336,0.81-2.309,0.81
			c-2.053,0-3.077-1.134-3.077-3.402v-31.833c-1.351,1.243-2.755,2.484-4.213,3.727s-3.051,2.511-4.778,3.807
			c-1.351,0.972-2.471,1.458-3.361,1.458c-0.892,0-1.635-0.458-2.228-1.377c-0.486-0.756-0.596-1.606-0.324-2.552
			c0.27-0.943,0.944-1.794,2.024-2.551c5.237-3.727,9.626-7.533,13.163-11.422c3.536-3.888,6.521-7.883,8.95-11.987
			c0.27-0.486,0.311-0.823,0.122-1.013c-0.19-0.188-0.662-0.283-1.418-0.283h-18.225c-1.243,0-2.106-0.243-2.593-0.729
			c-0.485-0.485-0.729-1.322-0.729-2.511c0-1.08,0.27-1.835,0.81-2.269c0.539-0.431,1.377-0.647,2.512-0.647h11.906
			c-0.108-0.107-0.216-0.243-0.323-0.405c-0.109-0.162-0.217-0.351-0.324-0.566c-0.757-1.242-1.432-2.362-2.025-3.362
			c-0.595-0.998-1.296-2.118-2.105-3.361c-0.864-1.349-1.27-2.442-1.215-3.28c0.053-0.837,0.458-1.498,1.215-1.984
			c0.972-0.648,1.875-0.891,2.713-0.729c0.837,0.162,1.688,0.973,2.552,2.431c0.756,1.188,1.499,2.403,2.228,3.645
			c0.729,1.243,1.471,2.484,2.228,3.727c0.324,0.702,0.513,1.404,0.567,2.105c0.053,0.702-0.136,1.296-0.567,1.782h2.592
			c2.321,0,4.036,0.514,5.144,1.539c1.106,1.026,1.66,2.377,1.66,4.05c0,0.757-0.121,1.553-0.364,2.39
			c-0.243,0.838-0.662,1.688-1.255,2.552c-1.135,1.729-2.242,3.335-3.321,4.819c-1.081,1.485-2.16,2.93-3.24,4.333
			c2.43,1.999,4.549,3.848,6.358,5.549c1.809,1.701,3.551,3.335,5.225,4.9c0.811,0.757,1.256,1.58,1.337,2.471
			s-0.203,1.66-0.851,2.309c-0.757,0.757-1.567,1.081-2.431,0.972c-0.864-0.107-1.755-0.675-2.673-1.701
			c-1.404-1.458-2.781-2.861-4.131-4.212c-1.351-1.349-2.809-2.726-4.374-4.131V234.566z M569.039,230.841
			c0,0.918-0.202,1.66-0.607,2.228c-0.404,0.566-1.121,0.851-2.146,0.851h-43.092c-1.134,0-1.958-0.284-2.471-0.851
			c-0.514-0.567-0.77-1.31-0.77-2.228c0-2.053,1.08-3.078,3.24-3.078h18.63v-40.5h-13.688c-1.135,0-1.932-0.27-2.39-0.81
			c-0.46-0.54-0.688-1.269-0.688-2.188c0-1.025,0.229-1.795,0.688-2.309c0.458-0.513,1.255-0.77,2.39-0.77h13.688v-17.658
			c0-1.079,0.296-1.849,0.892-2.308c0.593-0.459,1.349-0.688,2.268-0.688c0.918,0,1.66,0.242,2.228,0.729s0.851,1.243,0.851,2.268
			v17.658h14.661c1.943,0,2.916,1.026,2.916,3.078c0,1.998-0.973,2.997-2.916,2.997h-14.661v40.5h18.225
			c1.025,0,1.742,0.256,2.146,0.77C568.837,229.045,569.039,229.814,569.039,230.841z"/>
		<path fill="#FFFFFF" d="M656.033,232.218c0,1.079-0.203,1.863-0.607,2.349c-0.405,0.486-1.175,0.729-2.309,0.729h-57.591
			c-1.62,0-2.957-0.122-4.01-0.364c-1.053-0.243-1.891-0.662-2.511-1.256c-0.622-0.595-1.067-1.391-1.337-2.39
			c-0.271-1-0.405-2.255-0.405-3.767v-54.026c0-2.97,0.58-5.009,1.742-6.116c1.16-1.105,3.333-1.66,6.521-1.66h55.16
			c1.08,0,1.823,0.283,2.228,0.851c0.405,0.566,0.608,1.31,0.608,2.228c0,1.026-0.203,1.782-0.608,2.268
			c-0.404,0.486-1.147,0.729-2.228,0.729h-55.16c-0.648,0-1.175,0.121-1.58,0.364c-0.404,0.243-0.607,0.662-0.607,1.256v54.107
			c0,0.594,0.203,1.013,0.607,1.256c0.405,0.243,0.932,0.364,1.58,0.364h57.591c1.134,0,1.903,0.256,2.309,0.77
			C655.83,230.422,656.033,231.191,656.033,232.218z M648.824,226.062c-0.757,0.756-1.499,1.094-2.228,1.013
			c-0.729-0.081-1.607-0.688-2.633-1.822c-2.377-2.646-5.131-5.63-8.262-8.951c-3.133-3.32-6.48-6.763-10.044-10.327
			c-6.427,7.452-13.771,14.311-22.032,20.574c-1.513,1.079-2.66,1.633-3.442,1.66c-0.783,0.026-1.526-0.393-2.228-1.255
			c-0.595-0.811-0.783-1.648-0.567-2.512c0.216-0.864,1.106-1.89,2.673-3.078c3.672-2.754,7.276-5.804,10.814-9.152
			c3.536-3.348,6.951-6.938,10.246-10.773c-3.888-3.888-7.735-7.626-11.543-11.219c-3.807-3.59-7.33-6.79-10.57-9.598
			c-1.943-1.674-2.296-3.24-1.053-4.698c0.756-0.863,1.498-1.296,2.228-1.296c0.729,0,1.66,0.485,2.794,1.458
			c3.402,2.97,6.993,6.224,10.773,9.761c3.779,3.537,7.56,7.168,11.34,10.894c2.7-3.401,5.197-6.871,7.493-10.408
			c2.294-3.536,4.333-7.114,6.115-10.732c0.594-1.241,1.228-2.011,1.903-2.309c0.675-0.296,1.471-0.229,2.39,0.203
			c1.025,0.485,1.633,1.121,1.822,1.903c0.188,0.783-0.095,1.877-0.851,3.28c-3.997,7.885-8.775,15.363-14.337,22.437
			c3.455,3.457,6.723,6.805,9.801,10.045c3.078,3.239,5.805,6.184,8.182,8.828c1.403,1.567,2.146,2.769,2.228,3.604
			C649.918,224.428,649.579,225.252,648.824,226.062z"/>
	</g>
</g>
<g id="Layer_2">
	<path fill="#FFFFFF" d="M247.934,138.54c0-19.828-12.294-37.162-30.794-43.906c0.814-4.18,1.238-8.359,1.238-12.712
		c0-36.857-29.986-66.843-66.85-66.843c-21.525,0-41.558,10.326-54.144,27.726c-6.188-4.802-13.788-7.432-21.717-7.432
		c-19.564,0-35.481,15.916-35.481,35.481c0,4.323,0.771,8.461,2.218,12.365c-18.392,6.637-31.039,24.378-31.039,44.08
		c0,19.928,12.354,37.341,30.938,44.038c-0.79,4.131-1.22,8.395-1.22,12.706c0,36.772,29.915,66.687,66.687,66.687
		c21.586,0,41.6-10.367,54.115-27.84c6.231,4.893,13.849,7.576,21.747,7.576c19.564,0,35.482-15.911,35.482-35.475
		c0-4.323-0.772-8.468-2.22-12.371C235.288,175.989,247.934,158.242,247.934,138.54"/>
	<path fill="#FED10A" d="M104.375,116.568l51.761,23.599l52.228-45.762c0.757-3.775,1.126-7.539,1.126-11.478
		c0-32.199-26.191-58.394-58.389-58.394c-19.258,0-37.224,9.484-48.145,25.387l-8.687,45.071L104.375,116.568z"/>
	<path fill="#23BBB1" d="M50.792,171.386c-0.756,3.774-1.143,7.69-1.143,11.652c0,32.281,26.267,58.547,58.553,58.547
		c19.42,0,37.47-9.571,48.373-25.639l8.622-44.918L153.69,149.04l-51.966-23.687L50.792,171.386z"/>
	<path fill="#EF5098" d="M50.464,81.802l35.475,8.376l7.773-40.334c-4.848-3.705-10.832-5.733-16.987-5.733
		c-15.417,0-27.955,12.544-27.955,27.96C48.77,75.477,49.339,78.742,50.464,81.802"/>
	<path fill="#17A8E1" d="M47.384,90.251c-15.85,5.252-26.87,20.446-26.87,37.158c0,16.272,10.064,30.804,25.17,36.554l49.772-44.988
		l-9.138-19.526L47.384,90.251z"/>
	<path fill="#93C83E" d="M165.674,215.945c4.864,3.74,10.821,5.78,16.899,5.78c15.416,0,27.955-12.539,27.955-27.955
		c0-3.4-0.568-6.665-1.695-9.726l-35.445-8.294L165.674,215.945z"/>
	<path fill="#0779A1" d="M172.886,166.46l39.022,9.127c15.856-5.24,26.876-20.44,26.876-37.158
		c0-16.243-10.088-30.756-25.223-36.489l-51.039,44.712L172.886,166.46z"/>
</g>
</svg>
